<svg width="28" height="28" viewBox="0 0 28 28" fill="none" xmlns="http://www.w3.org/2000/svg">
<path d="M14.0359 12.5011C13.2344 12.5011 12.565 13.1565 12.565 13.9641C12.565 14.7656 13.2344 15.435 14.0359 15.435C15.9959 15.435 15.9959 12.5011 14.0359 12.5011ZM14.0359 13.4304C14.3369 13.4304 14.5687 13.6623 14.5687 13.9633C14.5687 14.2642 14.3369 14.4961 14.0359 14.4961C13.7349 14.4961 13.503 14.2642 13.503 13.9633C13.503 13.6623 13.7349 13.4304 14.0359 13.4304ZM0.756 0C0.674625 0 0.6335 0.014 0.350875 0.0455C0.063875 0.081375 -0.0315 0.4235 0.035875 0.784C0.09975 1.148 0.119 1.0255 0.26425 1.2355C0.410375 1.44462 5.19488 6.0655 7.67375 8.48487L3.28038 12.9885C1.82175 14.483 1.05175 16.7851 0.602 19.327C0.1505 21.8706 0.035875 24.6864 0 27.244C0.00102723 27.4225 0.0675183 27.5944 0.186865 27.7271C0.306212 27.8599 0.470117 27.9442 0.6475 27.9641C0.75469 27.9753 0.863015 27.9618 0.964177 27.9246C1.06534 27.8875 1.15665 27.8277 1.23112 27.7498H1.239L8.48487 20.3166C13.1749 24.6601 13.2895 26.2456 19.327 27.398C21.8706 27.8451 24.6864 27.9641 27.244 28C27.4211 27.9994 27.5919 27.9344 27.7244 27.817C27.857 27.6995 27.9422 27.5378 27.9641 27.3621L27.9737 27.3525C27.9771 27.3007 27.9739 27.2486 27.9641 27.1976C27.9454 27.0345 27.8731 26.8821 27.7585 26.7645V26.7566L20.3166 19.5151L24.5551 15.1672C24.6103 15.1174 24.6601 15.0622 24.71 15.0124L24.7196 15.0028C26.1782 13.5083 26.9561 11.2157 27.4076 8.67387C27.8547 6.12587 27.9641 3.3145 28 0.756875C27.9994 0.579798 27.9344 0.408993 27.817 0.276439C27.6995 0.143885 27.5378 0.058671 27.3621 0.03675L27.3525 0.023625C27.3026 0.023625 27.2475 0.023625 27.1976 0.0315C27.0347 0.0489291 26.8832 0.123297 26.7698 0.2415H26.7619L19.516 7.66938L15.0124 3.28038C13.5179 1.82175 11.221 1.04387 8.67387 0.592375C6.0445 0.305375 3.4055 0.04025 0.756875 0H0.756ZM1.31687 0.975625C3.696 1.02112 6.23438 1.1165 8.5085 1.51813C10.9646 1.95125 13.0935 2.72125 14.3561 3.95675H14.364L14.4874 4.08362C14.5145 4.11075 14.5425 4.1475 14.574 4.179C14.574 4.18337 14.5784 4.18338 14.5784 4.18863L14.5924 4.19825L14.6064 4.21575V4.22538C14.6099 4.22975 14.6143 4.22975 14.6143 4.235C14.7647 4.44063 15.0299 4.8405 15.1069 5.00938C15.162 5.12838 15.2119 5.25087 15.2617 5.38737C15.4717 5.99375 15.5768 6.74975 15.5033 7.7035V7.71137C15.4849 7.92575 15.4577 8.1445 15.4262 8.37725C15.4079 8.48575 15.3851 8.60913 15.3668 8.73687C15.3169 8.99237 15.2618 9.23825 15.2023 9.48938C15.1696 9.62501 15.1346 9.76007 15.0972 9.8945V9.90413C14.9467 10.4466 14.7472 11.0442 14.5014 11.6777C14.4419 11.8379 14.3824 11.9919 14.315 12.1607L14.1409 12.5571L13.8399 12.6158C12.8188 10.6838 11.7023 9.34937 10.7048 8.58288C10.1981 8.2005 9.72913 7.95375 9.27325 7.854H9.26888C8.81825 7.75513 8.33525 7.8225 8.02025 8.14538L8.06138 8.23288L8.435 7.95375L1.31687 0.975625ZM27.0244 1.3125C26.9832 3.69163 26.8879 6.23438 26.4819 8.5085C26.0487 10.9646 25.284 13.0935 24.0433 14.3605L23.9164 14.4786C23.8814 14.5137 23.8449 14.5473 23.807 14.5793L23.7895 14.6029H23.7799C23.5795 14.749 23.1639 15.022 22.9959 15.099C22.8769 15.1541 22.75 15.218 22.6179 15.2635H22.6082C22.0062 15.4691 21.2502 15.5689 20.2974 15.4954C20.0883 15.4779 19.8599 15.4595 19.628 15.428L19.2771 15.3685H19.2692C19.0138 15.3186 18.7679 15.2635 18.5168 15.204H18.5071C18.3706 15.1681 18.2385 15.127 18.1073 15.0911C17.5054 14.9259 16.912 14.7311 16.3293 14.5075C16.1691 14.4436 16.0064 14.3745 15.8366 14.3071C15.7141 14.2572 15.5907 14.2065 15.4682 14.1523C15.4822 14.0787 15.3772 14.2669 15.4682 14.1523C15.4737 14.0384 15.4533 13.9247 15.4088 13.8197C17.3189 12.8039 18.6532 11.6996 19.4154 10.7074C19.803 10.2008 20.0532 9.723 20.153 9.2715C20.258 8.82088 20.1854 8.32913 19.8616 8.01413L19.8713 8.02375L19.9999 8.43412L27.0244 1.3125ZM16.2146 5.76888L19.173 8.64937L19.1861 8.66775L19.2045 8.68087C19.25 8.72637 19.2955 8.81388 19.2404 9.0685C19.2133 9.18313 19.0724 9.37913 18.9989 9.52437C18.9035 9.72038 18.8624 9.87525 18.6804 10.1124C18.0425 10.9279 16.7939 11.9394 15.0203 12.8879C15.0754 12.761 15.1253 12.6368 15.1751 12.5142C15.2425 12.3454 15.3072 12.1721 15.3711 12.0076C15.6266 11.3426 15.8401 10.7188 16.0002 10.1386C16.1131 9.72913 16.2103 9.3135 16.2873 8.89962V8.89C16.3056 8.76312 16.3371 8.63888 16.3564 8.512C16.3879 8.26612 16.415 8.02462 16.4334 7.77787C16.4929 6.9895 16.352 6.384 16.2138 5.77238L16.2146 5.76888ZM9.0685 8.764C10.9279 9.60137 12.1406 11.5894 12.8931 12.9841C12.7645 12.9246 12.642 12.8791 12.5151 12.824C12.345 12.758 12.1747 12.6927 12.0041 12.628C11.3955 12.3867 10.7749 12.1767 10.1447 11.9989H10.1404C9.99425 11.9578 9.85337 11.9219 9.71688 11.886C9.4395 11.8169 9.16125 11.7626 8.90137 11.7119C8.7745 11.6935 8.6415 11.676 8.51375 11.6524V11.6427C8.26977 11.6106 8.02497 11.5849 7.77962 11.5658C6.986 11.5063 6.37612 11.6427 5.7645 11.7801L8.64937 8.82613L8.68087 8.79025C8.72637 8.74475 8.81388 8.69925 9.0685 8.75875V8.764ZM7.70613 12.5011C7.91613 12.5151 8.14013 12.5422 8.372 12.5781H8.38163C8.49013 12.5965 8.60913 12.614 8.73162 12.6376C8.97313 12.6831 9.219 12.7382 9.48413 12.8021L9.68975 12.852C9.75712 12.8695 9.82188 12.8835 9.89013 12.9019H9.89363C10.4458 13.0559 11.0337 13.2519 11.6716 13.4977C11.8317 13.5573 11.9945 13.6211 12.159 13.6841C12.2999 13.7436 12.4416 13.8075 12.5825 13.867L12.6009 14.1759C10.6864 15.1918 9.34675 16.3004 8.5855 17.2935C8.19788 17.8001 7.94762 18.2691 7.84787 18.725V18.7346C7.74288 19.1852 7.8155 19.6682 8.13925 19.9832H8.12963L7.91 19.5912L0.9835 26.6726C1.029 24.2987 1.11563 21.7647 1.51638 19.4906C1.9495 17.0345 2.7195 14.91 3.955 13.643V13.6351C3.98213 13.6027 4.01363 13.58 4.046 13.5476L4.08187 13.5161C4.11339 13.4807 4.14859 13.4487 4.18687 13.4208H4.1965C4.20087 13.4164 4.20437 13.4068 4.20962 13.4024C4.41 13.2563 4.83525 12.9745 5.00325 12.8923C5.13039 12.8356 5.2597 12.7839 5.39087 12.7374C5.99725 12.5274 6.75325 12.4224 7.7105 12.4959L7.70613 12.5011ZM13.7226 12.733C13.4922 12.8011 13.2824 12.9254 13.1121 13.0948C12.9418 13.2642 12.8163 13.4734 12.747 13.7034L13.2615 13.1337L13.7226 12.733ZM14.3561 12.7645L14.5653 13.1434L14.7394 13.2519L15.2084 13.622C15.0404 13.2116 14.7753 12.915 14.3614 12.7689L14.3561 12.7645ZM14.0236 13.3709C14.3833 13.3709 14.665 13.6535 14.665 14.014C14.6663 14.0988 14.6506 14.1831 14.6189 14.2617C14.5872 14.3404 14.5401 14.412 14.4803 14.4722C14.4206 14.5325 14.3494 14.5802 14.271 14.6125C14.1926 14.6449 14.1085 14.6612 14.0236 14.6606C13.9383 14.6618 13.8537 14.6459 13.7747 14.6138C13.6956 14.5817 13.6238 14.5342 13.5635 14.4739C13.5031 14.4136 13.4554 14.3419 13.4233 14.2629C13.3911 14.1839 13.3751 14.0993 13.3761 14.014C13.3761 13.6535 13.6588 13.3709 14.0236 13.3709ZM12.7969 14.378C12.9605 14.8024 13.244 15.0894 13.6675 15.2486L13.3901 14.9258L13.1521 14.6528L12.7969 14.378ZM15.2031 14.4191L14.8706 14.5565L14.8032 14.7656L14.4699 15.1436C14.8068 14.98 15.0482 14.7656 15.204 14.4235L15.2031 14.4191ZM15.1165 15.0159C15.239 15.0657 15.3624 15.1305 15.4849 15.1804L15.9959 15.3764C16.6513 15.631 17.2769 15.8358 17.8552 15.9959C18.0058 16.0414 18.1519 16.0729 18.2831 16.1105C18.5658 16.1779 18.8388 16.2426 19.103 16.2925C19.2255 16.31 19.3585 16.3284 19.4906 16.352C19.7417 16.3835 19.9876 16.415 20.2248 16.4386C21.0184 16.4981 21.6239 16.3573 22.2381 16.219L19.3541 19.1774L19.3358 19.1905L19.3182 19.2089C19.2762 19.2544 19.1853 19.2955 18.9394 19.2447H18.9315C18.6804 19.1852 18.3111 19.0076 17.8876 18.6751C17.0721 18.0373 16.0606 16.7886 15.1165 15.015V15.0159ZM12.9789 15.1209L12.824 15.4893C12.7566 15.6581 12.6919 15.8314 12.6236 15.9959C12.3877 16.6055 12.181 17.226 12.0041 17.8552C11.963 18.0058 11.9271 18.1519 11.8947 18.2884C11.8274 18.5658 11.7626 18.844 11.7127 19.1039C11.6909 19.236 11.6716 19.3638 11.6532 19.4959C11.6174 19.7374 11.5903 19.9789 11.5666 20.2248C11.5071 21.0184 11.648 21.6283 11.781 22.2381L8.827 19.3541L8.8095 19.3261L8.79113 19.3182V19.3086C8.74562 19.2631 8.7045 19.1896 8.75962 18.9385V18.9306C8.81913 18.6795 9.00112 18.3102 9.32925 17.8867C9.96275 17.0712 11.2114 16.0597 12.9797 15.1156L12.9789 15.1209ZM14.1916 15.4219C15.2031 17.318 16.3065 18.6568 17.2952 19.4189C17.8019 19.8065 18.2709 20.0559 18.7267 20.1565H18.7364C19.187 20.2571 19.6648 20.1889 19.985 19.8651L19.9439 19.7838L19.5877 20.0987L26.6928 27.0296C24.3136 26.9841 21.7656 26.8888 19.4924 26.4827C17.0363 26.0496 14.9074 25.2849 13.6447 24.0494H13.6369L13.573 23.9864C13.5634 23.9767 13.559 23.9628 13.5494 23.9488L13.5135 23.9172C13.4864 23.8857 13.4496 23.8481 13.4225 23.8123V23.8026C13.4181 23.7982 13.4041 23.7895 13.4041 23.7851C13.2173 23.5318 13.0469 23.2667 12.894 22.9915C12.8347 22.8655 12.783 22.736 12.7391 22.6039C12.5291 21.9975 12.4241 21.2459 12.4976 20.2895C12.516 20.0795 12.5431 19.8599 12.5746 19.6236V19.614C12.593 19.5055 12.6158 19.3865 12.6341 19.264C12.6796 19.0225 12.7347 18.7766 12.7986 18.5115V18.5019L12.8537 18.3059L12.9036 18.1064V18.0967C13.0541 17.5499 13.2493 16.9619 13.4995 16.3231C13.559 16.163 13.6281 16.0002 13.6955 15.8357C13.7506 15.6992 13.8101 15.5671 13.8696 15.4306L14.1925 15.4123L14.1916 15.4219Z" fill="#FF6634"/>
</svg>
