<svg width="45" height="45" viewBox="0 0 45 45" fill="none" xmlns="http://www.w3.org/2000/svg">
<circle cx="22.5" cy="22.5" r="22.5" fill="#2D9CDB" fill-opacity="0.1"/>
<path d="M37 22C37 25.8617 35.4367 29.3617 32.9167 31.9167L31.6567 30.6567C33.8733 28.4167 35.25 25.3833 35.25 22C35.25 18.6283 33.8733 15.5833 31.6567 13.3433L32.9167 12.0833C35.4367 14.6383 37 18.1383 37 22ZM32.3333 19.2V17.3333H28.6C27.5733 17.3333 26.7333 18.1733 26.7333 19.2V21.0667C26.7333 21.5617 26.93 22.0365 27.2801 22.3866C27.6301 22.7367 28.1049 22.9333 28.6 22.9333H30.4667V24.8H26.7333V26.6667H30.4667C31.4933 26.6667 32.3333 25.8267 32.3333 24.8V22.9333C32.3333 22.4383 32.1367 21.9635 31.7866 21.6134C31.4365 21.2633 30.9617 21.0667 30.4667 21.0667H28.6V19.2H32.3333ZM18.8233 15C20.0483 14.265 21.4717 13.8333 23 13.8333C24.5283 13.8333 25.9517 14.265 27.1767 15H30.805C28.8917 12.8533 26.1033 11.5 23 11.5C19.8967 11.5 17.1083 12.8533 15.195 15H18.8233ZM24.4 22C25.1467 22 25.8 22.6533 25.8 23.4V24.8C25.8 25.0451 25.7517 25.2879 25.6579 25.5143C25.5641 25.7408 25.4266 25.9466 25.2533 26.1199C25.0799 26.2933 24.8741 26.4308 24.6477 26.5246C24.4212 26.6184 24.1785 26.6667 23.9333 26.6667H20.2V17.3333H23.9333C24.4284 17.3333 24.9032 17.53 25.2533 17.8801C25.6033 18.2301 25.8 18.7049 25.8 19.2V20.6C25.8 21.3467 25.1467 22 24.4 22ZM23.9333 22.9333H22.0667V24.8H23.9333V22.9333ZM23.9333 19.2H22.0667V21.0667H23.9333V19.2ZM14.3433 13.3433L13.0833 12.0833C10.5633 14.6383 9 18.1383 9 22C9 25.8617 10.5633 29.3617 13.0833 31.9167L14.3433 30.6567C12.1267 28.4167 10.75 25.3833 10.75 22C10.75 18.6283 12.1267 15.5833 14.3433 13.3433ZM17.4 26.6667V22.9333H15.5333V26.6667H13.6667V19.2C13.6667 18.7049 13.8633 18.2301 14.2134 17.8801C14.5635 17.53 15.0383 17.3333 15.5333 17.3333H17.4C18.4267 17.3333 19.2667 18.1733 19.2667 19.2V26.6667H17.4ZM17.4 21.0667V19.2H15.5333V21.0667H17.4ZM27.1767 29C25.9517 29.735 24.5283 30.1667 23 30.1667C21.5275 30.1654 20.0833 29.762 18.8233 29H15.195C17.1083 31.1467 19.8967 32.5 23 32.5C26.1033 32.5 28.8917 31.1467 30.805 29H27.1767Z" fill="#2D9CDB"/>
</svg>
