<svg width="45" height="45" viewBox="0 0 45 45" fill="none" xmlns="http://www.w3.org/2000/svg">
<circle cx="22.5" cy="22.5" r="22.5" fill="#00B2A9" fill-opacity="0.1"/>
<path d="M19.25 22C14.25 18.25 13 13.25 13 13.25M23 25.75C23.9946 25.75 24.9484 25.3549 25.6516 24.6516C26.3549 23.9484 26.75 22.9946 26.75 22C26.75 21.0054 26.3549 20.0516 25.6516 19.3483C24.9484 18.6451 23.9946 18.25 23 18.25C22.0054 18.25 21.0516 18.6451 20.3483 19.3483C19.6451 20.0516 19.25 21.0054 19.25 22C19.25 22.9946 19.6451 23.9484 20.3483 24.6516C21.0516 25.3549 22.0054 25.75 23 25.75V25.75ZM26.75 22C31.75 25.75 33 30.75 33 30.75L26.75 22ZM23 35.75C30.5937 35.75 36.75 29.5937 36.75 22C36.75 14.4062 30.5937 8.25 23 8.25C15.4062 8.25 9.25 14.4062 9.25 22C9.25 29.5937 15.4062 35.75 23 35.75ZM23 18.25C26.75 12 31.75 10.75 31.75 10.75L23 18.25ZM23 25.75C19.25 30.75 14.25 32 14.25 32L23 25.75Z" stroke="#00B2A9" stroke-width="2"/>
</svg>
