<svg width="45" height="45" viewBox="0 0 45 45" fill="none" xmlns="http://www.w3.org/2000/svg">
<circle cx="22.5" cy="22.5" r="22.5" fill="#FF6634" fill-opacity="0.1"/>
<path d="M28.3124 10.4814L24.4374 14.3264L22.2286 12.1157L20.8336 13.5107L21.5602 14.2373L16.5963 19.2012C16.0323 19.7682 15.7157 20.5355 15.7157 21.3353C15.7157 22.1351 16.0323 22.9024 16.5963 23.4695L18.3827 25.2558L11.1461 32.4604L12.5411 33.8554L19.7447 26.6189L21.5311 28.4033C22.0982 28.9673 22.8655 29.2839 23.6653 29.2839C24.4651 29.2839 25.2324 28.9673 25.7994 28.4033L30.7643 23.4385L31.4908 24.165L32.8858 22.77L30.6732 20.5623L34.5172 16.6873L33.1561 15.3252L29.2811 19.1711L25.8295 15.7185L29.6754 11.8435L28.3124 10.4814ZM22.9232 15.5964L29.4022 22.0754L24.4374 27.0422C24.0615 27.4171 23.2691 27.4171 22.8932 27.0422L17.9593 22.1074C17.5835 21.7315 17.5835 20.9391 17.9593 20.5632L22.9232 15.5984V15.5964Z" fill="#FF6634"/>
</svg>
