<svg width="45" height="45" viewBox="0 0 45 45" fill="none" xmlns="http://www.w3.org/2000/svg">
<circle cx="22.5" cy="22.5" r="22.5" fill="#27AE60" fill-opacity="0.1"/>
<path d="M8 21V28.5H29.5V21H8ZM27.5 26.5H10V23H27.5V26.5Z" fill="#27AE60"/>
<path d="M31 21H33V28.5H31V21Z" fill="#27AE60"/>
<path d="M34.5 21H36.5V28.5H34.5V21Z" fill="#27AE60"/>
<path d="M31.0891 16.8313C30.8493 16.4695 30.7338 16.0396 30.76 15.6064C30.7861 15.1733 30.9526 14.7604 31.2341 14.4301C31.8161 13.7532 32.1539 12.9005 32.1933 12.0087C32.2328 11.1168 31.9715 10.2376 31.4515 9.512L31.0859 9H28.7998L28.6861 9.08125L29.824 10.6744C30.0835 11.0364 30.2139 11.4752 30.1942 11.9202C30.1745 12.3652 30.0059 12.7907 29.7155 13.1284C29.1514 13.7903 28.8179 14.6178 28.7655 15.4859C28.713 16.354 28.9445 17.2156 29.425 17.9405L29.798 18.5H32.2017L31.0891 16.8313Z" fill="#27AE60"/>
<path d="M35.5891 16.8313C35.3493 16.4695 35.2338 16.0396 35.26 15.6064C35.2861 15.1733 35.4526 14.7604 35.7341 14.4301C36.3161 13.7532 36.6539 12.9005 36.6933 12.0087C36.7328 11.1168 36.4715 10.2376 35.9515 9.512L35.5859 9H33.2998L33.1861 9.08125L34.324 10.6744C34.5835 11.0364 34.7139 11.4752 34.6942 11.9202C34.6745 12.3652 34.5059 12.7907 34.2155 13.1284C33.6514 13.7903 33.3179 14.6178 33.2655 15.4859C33.213 16.354 33.4445 17.2156 33.925 17.9405L34.298 18.5H36.7017L35.5891 16.8313Z" fill="#27AE60"/>
</svg>
