<svg width="45" height="45" viewBox="0 0 45 45" fill="none" xmlns="http://www.w3.org/2000/svg">
<circle cx="22.5" cy="22.5" r="22.5" fill="#2D9CDB" fill-opacity="0.1"/>
<path d="M24.7667 35.3335H12.9167C12.6029 35.3435 12.2903 35.2904 11.9975 35.1772C11.7047 35.064 11.4376 34.8932 11.2122 34.6747C10.9867 34.4562 10.8075 34.1947 10.6851 33.9056C10.5628 33.6165 10.4998 33.3057 10.5 32.9918V11.0501C10.5239 10.4105 10.8005 9.80652 11.2692 9.37064C11.7379 8.93477 12.3604 8.70261 13 8.72513H24.85C25.1568 8.71826 25.4618 8.77376 25.7466 8.88828C26.0313 9.00279 26.2898 9.17394 26.5064 9.39133C26.723 9.60873 26.8932 9.86785 27.0067 10.153C27.1202 10.4381 27.1746 10.7433 27.1667 11.0501V32.9918C27.1656 33.304 27.1024 33.6128 26.9807 33.9002C26.859 34.1877 26.6812 34.448 26.4578 34.666C26.2344 34.884 25.9698 35.0553 25.6794 35.1699C25.389 35.2845 25.0788 35.3401 24.7667 35.3335ZM12.9167 10.3335C12.8201 10.3301 12.7238 10.3461 12.6335 10.3805C12.5432 10.415 12.4606 10.4671 12.3908 10.5339C12.3209 10.6006 12.2651 10.6807 12.2266 10.7694C12.1881 10.858 12.1677 10.9535 12.1667 11.0501V32.9918C12.1667 33.1841 12.2431 33.3685 12.379 33.5045C12.515 33.6404 12.6994 33.7168 12.8917 33.7168H24.7667C24.9661 33.7195 25.1591 33.646 25.3062 33.5112C25.4533 33.3765 25.5435 33.1907 25.5583 32.9918V11.0501C25.5415 10.8527 25.4504 10.669 25.3035 10.536C25.1566 10.403 24.9648 10.3306 24.7667 10.3335H12.9167Z" fill="#2D9CDB"/>
<path d="M32.6084 35.333C32.2233 35.3363 31.8413 35.2633 31.4845 35.1182C31.1278 34.9731 30.8033 34.7588 30.5298 34.4876C30.2563 34.2165 30.0392 33.8938 29.8911 33.5383C29.743 33.1828 29.6667 32.8015 29.6667 32.4163V26.1663C29.6667 25.7243 29.4911 25.3004 29.1785 24.9878C28.866 24.6753 28.4421 24.4997 28 24.4997H26.8084C26.5874 24.4997 26.3754 24.4119 26.2191 24.2556C26.0628 24.0993 25.975 23.8874 25.975 23.6663C25.975 23.4453 26.0628 23.2334 26.2191 23.0771C26.3754 22.9208 26.5874 22.833 26.8084 22.833H28C28.8841 22.833 29.7319 23.1842 30.3571 23.8093C30.9822 24.4344 31.3334 25.2823 31.3334 26.1663V32.4163C31.3334 32.7479 31.4651 33.0658 31.6995 33.3002C31.9339 33.5346 32.2519 33.6663 32.5834 33.6663C32.9149 33.6663 33.2328 33.5346 33.4673 33.3002C33.7017 33.0658 33.8334 32.7479 33.8334 32.4163V21.4163L31.225 15.583C31.0692 15.2579 30.8245 14.9837 30.5192 14.7919C30.2139 14.6002 29.8605 14.4989 29.5 14.4997H28.8917C28.6707 14.4997 28.4587 14.4119 28.3024 14.2556C28.1462 14.0993 28.0584 13.8874 28.0584 13.6663C28.0584 13.4453 28.1462 13.2334 28.3024 13.0771C28.4587 12.9208 28.6707 12.833 28.8917 12.833H29.5C30.1929 12.8327 30.8711 13.0332 31.4523 13.4103C32.0336 13.7875 32.493 14.3251 32.775 14.958L35.45 20.9247C35.4989 21.032 35.5245 21.1484 35.525 21.2663V32.4163C35.525 33.1899 35.2178 33.9318 34.6708 34.4787C34.1238 35.0257 33.3819 35.333 32.6084 35.333Z" fill="#2D9CDB"/>
<path d="M23 14.4997H14.6667C14.4457 14.4997 14.2337 14.4119 14.0775 14.2556C13.9212 14.0993 13.8334 13.8874 13.8334 13.6663C13.8334 13.4453 13.9212 13.2334 14.0775 13.0771C14.2337 12.9208 14.4457 12.833 14.6667 12.833H23C23.2211 12.833 23.433 12.9208 23.5893 13.0771C23.7456 13.2334 23.8334 13.4453 23.8334 13.6663C23.8334 13.8874 23.7456 14.0993 23.5893 14.2556C23.433 14.4119 23.2211 14.4997 23 14.4997Z" fill="#2D9CDB"/>
<path d="M23 17.8337H14.6667C14.4457 17.8337 14.2337 17.7459 14.0775 17.5896C13.9212 17.4333 13.8334 17.2213 13.8334 17.0003C13.8334 16.7793 13.9212 16.5673 14.0775 16.4111C14.2337 16.2548 14.4457 16.167 14.6667 16.167H23C23.2211 16.167 23.433 16.2548 23.5893 16.4111C23.7456 16.5673 23.8334 16.7793 23.8334 17.0003C23.8334 17.2213 23.7456 17.4333 23.5893 17.5896C23.433 17.7459 23.2211 17.8337 23 17.8337Z" fill="#2D9CDB"/>
<path d="M28.8333 17.0671C28.6123 17.0671 28.4004 16.9793 28.2441 16.823C28.0878 16.6667 28 16.4547 28 16.2337V11.2337C28 11.0127 28.0878 10.8007 28.2441 10.6445C28.4004 10.4882 28.6123 10.4004 28.8333 10.4004C29.0543 10.4004 29.2663 10.4882 29.4226 10.6445C29.5789 10.8007 29.6667 11.0127 29.6667 11.2337V16.2337C29.6667 16.4547 29.5789 16.6667 29.4226 16.823C29.2663 16.9793 29.0543 17.0671 28.8333 17.0671Z" fill="#2D9CDB"/>
</svg>
