<svg width="45" height="45" viewBox="0 0 45 45" fill="none" xmlns="http://www.w3.org/2000/svg">
<circle cx="22.5" cy="22.5" r="22.5" fill="#00B2A9" fill-opacity="0.1"/>
<path d="M36.3518 8.64816C36.431 8.72711 36.4938 8.82091 36.5366 8.92418C36.5795 9.02745 36.6015 9.13815 36.6015 9.24996C36.6015 9.36176 36.5795 9.47247 36.5366 9.57573C36.4938 9.679 36.431 9.7728 36.3518 9.85176L33.5162 12.6874C34.5415 14.0078 35.0499 15.6568 34.946 17.3253C34.842 18.9938 34.133 20.5671 32.9518 21.7501L32.4418 22.2601L32.4367 22.2652L31.9114 22.7905C31.5767 23.1247 31.123 23.3125 30.65 23.3125C30.177 23.3125 29.7233 23.1247 29.3886 22.7905L22.2095 15.6114C22.0438 15.4456 21.9123 15.2488 21.8225 15.0322C21.7328 14.8157 21.6866 14.5835 21.6866 14.3491C21.6866 14.1147 21.7328 13.8826 21.8225 13.666C21.9123 13.4494 22.0438 13.2526 22.2095 13.0869L23.2482 12.0499C24.4307 10.8672 26.0045 10.1572 27.6737 10.0533C29.3429 9.94935 30.9925 10.4586 32.3126 11.4855L35.1482 8.64816C35.2272 8.569 35.321 8.5062 35.4242 8.46335C35.5275 8.42049 35.6382 8.39844 35.75 8.39844C35.8618 8.39844 35.9725 8.42049 36.0758 8.46335C36.1791 8.5062 36.2729 8.569 36.3518 8.64816ZM31.738 13.2399C30.7691 12.2776 29.4584 11.7385 28.0928 11.7404C26.7273 11.7423 25.4181 12.2851 24.4518 13.2501L23.9418 13.7601C23.8645 13.8374 23.8031 13.9292 23.7612 14.0303C23.7194 14.1314 23.6978 14.2397 23.6978 14.3491C23.6978 14.4585 23.7194 14.5668 23.7612 14.6679C23.8031 14.769 23.8645 14.8608 23.9418 14.9382L30.0618 21.0582C30.3848 21.3829 30.9118 21.3846 31.2365 21.0616L31.2399 21.0582L31.7499 20.5482C32.7153 19.5821 33.2584 18.2729 33.2603 16.9072C33.2622 15.5415 32.7228 14.2307 31.7601 13.262L31.7482 13.2518L31.738 13.2399Z" fill="#00B2A9"/>
<path d="M21.9018 19.698C21.9809 19.7769 22.0437 19.8707 22.0866 19.974C22.1294 20.0773 22.1515 20.188 22.1515 20.2998C22.1515 20.4116 22.1294 20.5223 22.0866 20.6255C22.0437 20.7288 21.9809 20.8226 21.9018 20.9016L19.1019 23.6998L21.3 25.8979L24.0982 23.098C24.1772 23.0189 24.271 22.9562 24.3743 22.9135C24.4775 22.8707 24.5882 22.8487 24.7 22.8487C24.8117 22.8487 24.9224 22.8707 25.0257 22.9135C25.1289 22.9562 25.2228 23.0189 25.3018 23.098C25.3808 23.177 25.4435 23.2708 25.4863 23.3741C25.529 23.4773 25.5511 23.588 25.5511 23.6998C25.5511 23.8115 25.529 23.9222 25.4863 24.0255C25.4435 24.1287 25.3808 24.2225 25.3018 24.3016L22.5019 27.0998L23.2618 27.8597C23.7367 28.3347 24.0035 28.9789 24.0035 29.6506C24.0035 30.3223 23.7367 30.9665 23.2618 31.4416L22.7518 31.9516C21.5693 33.1342 19.9955 33.8442 18.3263 33.9481C16.6571 34.0521 15.0075 33.5428 13.6874 32.516L10.8518 35.3516C10.6922 35.5112 10.4757 35.6008 10.25 35.6008C10.0243 35.6008 9.80779 35.5112 9.64818 35.3516C9.48858 35.192 9.39891 34.9755 9.39891 34.7498C9.39891 34.524 9.48858 34.3076 9.64818 34.148L12.4855 31.3124C11.4589 29.9926 10.9496 28.3434 11.0532 26.6746C11.1568 25.0058 11.8663 23.4323 13.0482 22.2497L13.5582 21.7397C13.7934 21.5042 14.0727 21.3175 14.3802 21.1901C14.6876 21.0626 15.0172 20.9971 15.35 20.9971C15.6828 20.9971 16.0123 21.0626 16.3198 21.1901C16.6272 21.3175 16.9065 21.5042 17.1418 21.7397L17.9 22.4979L20.6982 19.698C20.7771 19.6188 20.8709 19.556 20.9742 19.5132C21.0775 19.4703 21.1882 19.4482 21.3 19.4482C21.4118 19.4482 21.5225 19.4703 21.6258 19.5132C21.729 19.556 21.8228 19.6188 21.9018 19.698ZM14.2603 30.7582C15.2289 31.7215 16.5399 32.2616 17.906 32.26C19.2721 32.2584 20.5819 31.7153 21.5482 30.7497L22.0582 30.2397C22.1355 30.1623 22.1969 30.0705 22.2388 29.9694C22.2806 29.8683 22.3022 29.76 22.3022 29.6506C22.3022 29.5412 22.2806 29.4329 22.2388 29.3318C22.1969 29.2307 22.1355 29.1389 22.0582 29.0616L15.9382 22.9416C15.782 22.7858 15.5705 22.6984 15.35 22.6984C15.1295 22.6984 14.9179 22.7858 14.7618 22.9416L14.2518 23.4516C13.2847 24.4194 12.7414 25.7316 12.7414 27.0998C12.7414 28.4679 13.2847 29.7802 14.2518 30.748L14.2603 30.7582Z" fill="#00B2A9"/>
</svg>
