<svg width="45" height="45" viewBox="0 0 45 45" fill="none" xmlns="http://www.w3.org/2000/svg">
<circle cx="22.5" cy="22.5" r="22.5" fill="#27AE60" fill-opacity="0.1"/>
<path d="M20.6 10.2201C22.44 8.82012 24.68 8.12012 27.32 8.12012C29.28 8.12012 31.02 8.50012 32.54 9.26012C32.94 9.46012 33.14 9.80012 33.14 10.2801V10.5801C33.02 10.9401 32.8 11.1801 32.48 11.3001C32.4 11.3401 32.26 11.3601 32.06 11.3601C31.82 11.3601 31.66 11.3201 31.58 11.2401C30.58 10.7601 29.5 10.4601 28.34 10.3401C27.54 10.1801 26.6 10.1001 25.52 10.1001C23.28 10.1001 21.2 10.5601 19.28 11.4801C19.84 10.9201 20.28 10.5001 20.6 10.2201ZM34.52 28.0401C34.52 27.6801 34.36 27.3801 34.04 27.1401C33.88 27.0201 33.68 26.9601 33.44 26.9601C33 26.9601 32.7 27.1001 32.54 27.3801C31.94 28.2201 31.32 28.8401 30.68 29.2401C30.48 29.3601 30.2 29.5401 29.84 29.7801C29.48 30.0201 29.2 30.2201 29 30.3801L28.64 30.6201C28.32 30.8201 28.16 31.1201 28.16 31.5201V32.9601L24.74 31.5201C24.66 31.4801 24.52 31.4601 24.32 31.4601H23.48C21.6 31.4601 19.85 31.0901 18.23 30.3501C16.61 29.6101 15.36 28.6201 14.48 27.3801H14.42H14.48C14.44 27.3801 14.38 27.3401 14.3 27.2601C13.58 26.1801 13.22 25.0601 13.22 23.9001C13.22 21.8201 14.22 20.0401 16.22 18.5601C18.22 17.0801 20.62 16.3401 23.42 16.3401C25.46 16.3401 27.36 16.7801 29.12 17.6601H29.18C29.94 18.0201 30.6 18.5601 31.16 19.2801C31.64 19.8801 31.88 20.5601 31.88 21.3201C31.88 22.5201 31.28 23.5601 30.08 24.4401C28.76 25.4001 27.12 25.8801 25.16 25.8801C24.52 25.8801 24.06 25.8601 23.78 25.8201H23.72C22.36 25.5801 21.16 25.1601 20.12 24.5601C17.92 23.2401 16.82 21.5601 16.82 19.5201V19.1001C16.02 19.7001 15.36 20.4001 14.84 21.2001C15.36 23.4001 16.76 25.1601 19.04 26.4801L19.1 26.5401C20.42 27.2601 21.86 27.7401 23.42 27.9801H23.48C24.2 28.0601 24.76 28.1001 25.16 28.1001C27.6 28.1001 29.66 27.4801 31.34 26.2401C33.18 24.8801 34.1 23.2401 34.1 21.3201C34.1 18.8801 32.78 17.0001 30.14 15.6801L30.08 15.6201C28 14.6201 25.78 14.1201 23.42 14.1201C20.06 14.1201 17.18 15.0401 14.78 16.8801C12.26 18.8001 11 21.1401 11 23.9001C11 25.5801 11.52 27.1601 12.56 28.6401L12.74 28.8201C13.86 30.3401 15.38 31.5301 17.3 32.3901C19.22 33.2501 21.28 33.6801 23.48 33.6801H24.14L28.82 35.6601C28.9 35.7001 29.04 35.7201 29.24 35.7201C29.48 35.7201 29.68 35.6601 29.84 35.5401C30.2 35.3401 30.38 35.0401 30.38 34.6401V32.1201L30.44 32.0601C30.6 31.9401 31.1 31.6201 31.94 31.1001C32.74 30.5801 33.54 29.7801 34.34 28.7001C34.46 28.4601 34.52 28.2401 34.52 28.0401ZM25.52 23.2401V23.4201V23.2401C26.24 23.3201 26.74 23.3601 27.02 23.3601C28.34 23.3601 29.58 23.1201 30.74 22.6401C31.02 22.1601 31.16 21.7201 31.16 21.3201C31.16 21.0001 31.06 20.6001 30.86 20.1201C29.74 20.8001 28.46 21.1401 27.02 21.1401C26.74 21.1401 26.36 21.1001 25.88 21.0201C23.16 20.6601 21.3 19.5001 20.3 17.5401C19.62 17.7001 18.94 17.9401 18.26 18.2601C18.82 19.5401 19.74 20.6201 21.02 21.5001C22.3 22.3801 23.8 22.9601 25.52 23.2401ZM35 17.3001C35 15.1401 33.84 13.4801 31.52 12.3201L31.4 12.2601C29.56 11.3801 27.6 10.9401 25.52 10.9401C22.52 10.9401 19.98 11.7401 17.9 13.3401C17.22 13.9001 16.64 14.4801 16.16 15.0801C18.28 14.0001 20.66 13.4201 23.3 13.3401C24.26 13.1801 25 13.1001 25.52 13.1001C27.24 13.1001 28.9 13.4801 30.5 14.2401L30.56 14.3001C31.56 14.8601 32.22 15.5401 32.54 16.3401C33.46 17.1401 34.14 18.1001 34.58 19.2201C34.86 18.5401 35 17.9001 35 17.3001Z" fill="#27AE60"/>
</svg>
